<mxfile host="Electron" agent="Mozilla/5.0 (Windows NT 10.0; Win64; x64) AppleWebKit/537.36 (KHTML, like Gecko) draw.io/24.7.8 Chrome/128.0.6613.36 Electron/32.0.1 Safari/537.36" version="24.7.8">
  <diagram id="C5RBs43oDa-KdzZeNtuy" name="Page-1">
    <mxGraphModel dx="698" dy="470" grid="1" gridSize="10" guides="1" tooltips="1" connect="1" arrows="1" fold="1" page="1" pageScale="1" pageWidth="570" pageHeight="410" math="0" shadow="0">
      <root>
        <mxCell id="WIyWlLk6GJQsqaUBKTNV-0" />
        <mxCell id="WIyWlLk6GJQsqaUBKTNV-1" parent="WIyWlLk6GJQsqaUBKTNV-0" />
        <mxCell id="PB_K3ttKSPYF9vjde6-5-34" value="" style="rounded=1;whiteSpace=wrap;html=1;dashed=1;fontSize=12;fillColor=none;" parent="WIyWlLk6GJQsqaUBKTNV-1" vertex="1">
          <mxGeometry x="51" y="30" width="470" height="80" as="geometry" />
        </mxCell>
        <mxCell id="ZhTJbbVJ5x2Whkzgil_z-12" style="edgeStyle=orthogonalEdgeStyle;rounded=0;orthogonalLoop=1;jettySize=auto;html=1;entryX=0;entryY=0.5;entryDx=0;entryDy=0;" edge="1" parent="WIyWlLk6GJQsqaUBKTNV-1" source="WIyWlLk6GJQsqaUBKTNV-3" target="ZhTJbbVJ5x2Whkzgil_z-11">
          <mxGeometry relative="1" as="geometry" />
        </mxCell>
        <mxCell id="WIyWlLk6GJQsqaUBKTNV-3" value="Conector&amp;nbsp;&lt;br&gt;VCC" style="rounded=1;whiteSpace=wrap;html=1;fontSize=12;glass=0;strokeWidth=1;shadow=0;" parent="WIyWlLk6GJQsqaUBKTNV-1" vertex="1">
          <mxGeometry x="11" y="220" width="80" height="40" as="geometry" />
        </mxCell>
        <mxCell id="ZhTJbbVJ5x2Whkzgil_z-32" style="edgeStyle=orthogonalEdgeStyle;rounded=0;orthogonalLoop=1;jettySize=auto;html=1;endArrow=oval;endFill=1;startArrow=classicThin;startFill=1;" edge="1" parent="WIyWlLk6GJQsqaUBKTNV-1" source="PB_K3ttKSPYF9vjde6-5-0">
          <mxGeometry relative="1" as="geometry">
            <mxPoint x="311" y="190" as="targetPoint" />
          </mxGeometry>
        </mxCell>
        <mxCell id="PB_K3ttKSPYF9vjde6-5-0" value="Buck&lt;br&gt;AP63205" style="whiteSpace=wrap;html=1;rounded=1;glass=0;strokeWidth=1;shadow=0;" parent="WIyWlLk6GJQsqaUBKTNV-1" vertex="1">
          <mxGeometry x="271" y="220" width="80" height="40" as="geometry" />
        </mxCell>
        <mxCell id="PB_K3ttKSPYF9vjde6-5-9" style="edgeStyle=orthogonalEdgeStyle;rounded=0;orthogonalLoop=1;jettySize=auto;html=1;entryX=0;entryY=0.5;entryDx=0;entryDy=0;fontSize=8;" parent="WIyWlLk6GJQsqaUBKTNV-1" source="PB_K3ttKSPYF9vjde6-5-5" target="PB_K3ttKSPYF9vjde6-5-6" edge="1">
          <mxGeometry relative="1" as="geometry" />
        </mxCell>
        <mxCell id="PB_K3ttKSPYF9vjde6-5-5" value="&lt;div&gt;Conector&lt;/div&gt;Bateria&lt;br&gt;&lt;font style=&quot;font-size: 10px;&quot;&gt;Li-Ion ICR 14500&lt;br&gt;(3.7V-700mAH)&lt;/font&gt;" style="rounded=1;whiteSpace=wrap;html=1;fontSize=12;glass=0;strokeWidth=1;shadow=0;" parent="WIyWlLk6GJQsqaUBKTNV-1" vertex="1">
          <mxGeometry x="11" y="270" width="80" height="60" as="geometry" />
        </mxCell>
        <mxCell id="PB_K3ttKSPYF9vjde6-5-6" value="Proteção&lt;br&gt;&lt;font style=&quot;font-size: 8px; line-height: 1.2;&quot;&gt;TLV7031QDBVRQ1&lt;br&gt;PJA3415_R1_00001&lt;br&gt;LM4041DYM3-1.2-TR&lt;/font&gt;&lt;font&gt;&lt;br&gt;&lt;/font&gt;" style="rounded=1;whiteSpace=wrap;html=1;fontSize=12;glass=0;strokeWidth=1;shadow=0;" parent="WIyWlLk6GJQsqaUBKTNV-1" vertex="1">
          <mxGeometry x="140" y="270" width="100" height="60" as="geometry" />
        </mxCell>
        <mxCell id="PB_K3ttKSPYF9vjde6-5-23" style="edgeStyle=none;rounded=0;orthogonalLoop=1;jettySize=auto;html=1;entryX=0.5;entryY=0;entryDx=0;entryDy=0;entryPerimeter=0;fontSize=12;endArrow=oval;endFill=1;" parent="WIyWlLk6GJQsqaUBKTNV-1" source="PB_K3ttKSPYF9vjde6-5-10" target="PB_K3ttKSPYF9vjde6-5-18" edge="1">
          <mxGeometry relative="1" as="geometry" />
        </mxCell>
        <mxCell id="PB_K3ttKSPYF9vjde6-5-10" value="" style="pointerEvents=1;fillColor=strokeColor;verticalLabelPosition=bottom;shadow=0;dashed=0;align=center;html=1;verticalAlign=top;shape=mxgraph.electrical.diodes.zener_diode_1;fontSize=8;strokeColor=#999999;" parent="WIyWlLk6GJQsqaUBKTNV-1" vertex="1">
          <mxGeometry x="241" y="70" width="25" height="20" as="geometry" />
        </mxCell>
        <mxCell id="PB_K3ttKSPYF9vjde6-5-12" style="rounded=0;orthogonalLoop=1;jettySize=auto;html=1;fontSize=8;endArrow=none;endFill=0;entryX=0.5;entryY=0;entryDx=0;entryDy=0;entryPerimeter=0;" parent="WIyWlLk6GJQsqaUBKTNV-1" source="PB_K3ttKSPYF9vjde6-5-11" target="PB_K3ttKSPYF9vjde6-5-40" edge="1">
          <mxGeometry relative="1" as="geometry">
            <mxPoint x="201" y="80" as="targetPoint" />
          </mxGeometry>
        </mxCell>
        <mxCell id="PB_K3ttKSPYF9vjde6-5-11" value="Conector USB&lt;br&gt;5V" style="rounded=1;whiteSpace=wrap;html=1;fontSize=12;glass=0;strokeWidth=1;shadow=0;" parent="WIyWlLk6GJQsqaUBKTNV-1" vertex="1">
          <mxGeometry x="61" y="60" width="80" height="40" as="geometry" />
        </mxCell>
        <mxCell id="PB_K3ttKSPYF9vjde6-5-22" style="edgeStyle=none;rounded=0;orthogonalLoop=1;jettySize=auto;html=1;entryX=0.5;entryY=0;entryDx=0;entryDy=0;entryPerimeter=0;fontSize=12;endArrow=none;endFill=0;" parent="WIyWlLk6GJQsqaUBKTNV-1" source="PB_K3ttKSPYF9vjde6-5-13" target="PB_K3ttKSPYF9vjde6-5-21" edge="1">
          <mxGeometry relative="1" as="geometry" />
        </mxCell>
        <mxCell id="PB_K3ttKSPYF9vjde6-5-24" style="edgeStyle=none;rounded=0;orthogonalLoop=1;jettySize=auto;html=1;fontSize=12;endArrow=oval;endFill=1;" parent="WIyWlLk6GJQsqaUBKTNV-1" source="PB_K3ttKSPYF9vjde6-5-13" edge="1">
          <mxGeometry relative="1" as="geometry">
            <mxPoint x="301" y="80" as="targetPoint" />
          </mxGeometry>
        </mxCell>
        <mxCell id="PB_K3ttKSPYF9vjde6-5-13" value="Buck-boost&lt;br&gt;RT6154AGQW" style="whiteSpace=wrap;html=1;rounded=1;glass=0;strokeWidth=1;shadow=0;" parent="WIyWlLk6GJQsqaUBKTNV-1" vertex="1">
          <mxGeometry x="361" y="60" width="100" height="40" as="geometry" />
        </mxCell>
        <mxCell id="PB_K3ttKSPYF9vjde6-5-18" value="&lt;font style=&quot;font-size: 12px;&quot;&gt;Vsys&lt;/font&gt;" style="verticalLabelPosition=top;verticalAlign=bottom;shape=mxgraph.electrical.signal_sources.vdd;shadow=0;dashed=0;align=center;strokeWidth=1;fontSize=24;html=1;flipV=1;" parent="WIyWlLk6GJQsqaUBKTNV-1" vertex="1">
          <mxGeometry x="291" y="60" width="20" height="20" as="geometry" />
        </mxCell>
        <mxCell id="PB_K3ttKSPYF9vjde6-5-21" value="&lt;span style=&quot;font-size: 12px;&quot;&gt;3.3V&lt;/span&gt;" style="verticalLabelPosition=top;verticalAlign=bottom;shape=mxgraph.electrical.signal_sources.vdd;shadow=0;dashed=0;align=center;strokeWidth=1;fontSize=24;html=1;flipV=1;" parent="WIyWlLk6GJQsqaUBKTNV-1" vertex="1">
          <mxGeometry x="491" y="60" width="20" height="20" as="geometry" />
        </mxCell>
        <mxCell id="PB_K3ttKSPYF9vjde6-5-28" style="edgeStyle=orthogonalEdgeStyle;rounded=0;orthogonalLoop=1;jettySize=auto;html=1;entryX=0.5;entryY=1;entryDx=0;entryDy=0;fontSize=12;endArrow=classic;endFill=1;" parent="WIyWlLk6GJQsqaUBKTNV-1" source="PB_K3ttKSPYF9vjde6-5-27" target="PB_K3ttKSPYF9vjde6-5-5" edge="1">
          <mxGeometry relative="1" as="geometry" />
        </mxCell>
        <mxCell id="PB_K3ttKSPYF9vjde6-5-27" value="&lt;font&gt;Carregador&lt;br&gt;MCP73831&lt;br&gt;&lt;/font&gt;" style="rounded=1;whiteSpace=wrap;html=1;fontSize=12;glass=0;strokeWidth=1;shadow=0;gradientColor=none;" parent="WIyWlLk6GJQsqaUBKTNV-1" vertex="1">
          <mxGeometry x="150" y="360" width="80" height="40" as="geometry" />
        </mxCell>
        <mxCell id="PB_K3ttKSPYF9vjde6-5-35" value="&lt;b&gt;Raspberry Pi Pico W&lt;/b&gt;" style="text;html=1;strokeColor=none;fillColor=none;align=center;verticalAlign=middle;whiteSpace=wrap;rounded=0;dashed=1;fontSize=12;" parent="WIyWlLk6GJQsqaUBKTNV-1" vertex="1">
          <mxGeometry x="236" y="10" width="130" height="20" as="geometry" />
        </mxCell>
        <mxCell id="PB_K3ttKSPYF9vjde6-5-36" value="&lt;font style=&quot;font-size: 10px;&quot;&gt;12~24V&lt;/font&gt;" style="text;html=1;strokeColor=none;fillColor=none;align=center;verticalAlign=middle;whiteSpace=wrap;rounded=0;dashed=1;fontSize=12;" parent="WIyWlLk6GJQsqaUBKTNV-1" vertex="1">
          <mxGeometry x="100" y="220" width="40" height="20" as="geometry" />
        </mxCell>
        <mxCell id="PB_K3ttKSPYF9vjde6-5-48" style="edgeStyle=orthogonalEdgeStyle;rounded=0;orthogonalLoop=1;jettySize=auto;html=1;entryX=0.5;entryY=0;entryDx=0;entryDy=0;entryPerimeter=0;fontSize=10;startArrow=none;startFill=0;endArrow=none;endFill=0;" parent="WIyWlLk6GJQsqaUBKTNV-1" source="PB_K3ttKSPYF9vjde6-5-39" target="PB_K3ttKSPYF9vjde6-5-47" edge="1">
          <mxGeometry relative="1" as="geometry" />
        </mxCell>
        <mxCell id="ZhTJbbVJ5x2Whkzgil_z-38" value="" style="edgeStyle=none;rounded=0;orthogonalLoop=1;jettySize=auto;html=1;endArrow=none;endFill=0;" edge="1" parent="WIyWlLk6GJQsqaUBKTNV-1" source="PB_K3ttKSPYF9vjde6-5-39" target="PB_K3ttKSPYF9vjde6-5-27">
          <mxGeometry relative="1" as="geometry" />
        </mxCell>
        <mxCell id="PB_K3ttKSPYF9vjde6-5-39" value="" style="pointerEvents=1;fillColor=strokeColor;verticalLabelPosition=bottom;shadow=0;dashed=0;align=center;html=1;verticalAlign=top;shape=mxgraph.electrical.diodes.zener_diode_1;fontSize=8;rotation=-180;" parent="WIyWlLk6GJQsqaUBKTNV-1" vertex="1">
          <mxGeometry x="311" y="370" width="25" height="20" as="geometry" />
        </mxCell>
        <mxCell id="PB_K3ttKSPYF9vjde6-5-40" value="&lt;font style=&quot;font-size: 12px;&quot;&gt;Vusb&lt;/font&gt;" style="verticalLabelPosition=top;verticalAlign=bottom;shape=mxgraph.electrical.signal_sources.vdd;shadow=0;dashed=0;align=center;strokeWidth=1;fontSize=24;html=1;flipV=1;" parent="WIyWlLk6GJQsqaUBKTNV-1" vertex="1">
          <mxGeometry x="201" y="60" width="20" height="20" as="geometry" />
        </mxCell>
        <mxCell id="PB_K3ttKSPYF9vjde6-5-49" style="edgeStyle=orthogonalEdgeStyle;rounded=0;orthogonalLoop=1;jettySize=auto;html=1;entryX=0.5;entryY=0;entryDx=0;entryDy=0;entryPerimeter=0;fontSize=10;startArrow=none;startFill=0;endArrow=none;endFill=0;" parent="WIyWlLk6GJQsqaUBKTNV-1" source="PB_K3ttKSPYF9vjde6-5-41" target="PB_K3ttKSPYF9vjde6-5-45" edge="1">
          <mxGeometry relative="1" as="geometry" />
        </mxCell>
        <mxCell id="ZhTJbbVJ5x2Whkzgil_z-39" style="edgeStyle=orthogonalEdgeStyle;rounded=0;orthogonalLoop=1;jettySize=auto;html=1;endArrow=oval;endFill=1;strokeWidth=1;endSize=6;" edge="1" parent="WIyWlLk6GJQsqaUBKTNV-1" source="PB_K3ttKSPYF9vjde6-5-41">
          <mxGeometry relative="1" as="geometry">
            <mxPoint x="290" y="380" as="targetPoint" />
          </mxGeometry>
        </mxCell>
        <mxCell id="PB_K3ttKSPYF9vjde6-5-41" value="" style="pointerEvents=1;fillColor=strokeColor;verticalLabelPosition=bottom;shadow=0;dashed=0;align=center;html=1;verticalAlign=top;shape=mxgraph.electrical.diodes.zener_diode_1;fontSize=8;rotation=-180;" parent="WIyWlLk6GJQsqaUBKTNV-1" vertex="1">
          <mxGeometry x="311" y="330" width="25" height="20" as="geometry" />
        </mxCell>
        <mxCell id="PB_K3ttKSPYF9vjde6-5-45" value="" style="verticalLabelPosition=top;verticalAlign=bottom;shape=mxgraph.electrical.signal_sources.vdd;shadow=0;dashed=0;align=center;strokeWidth=1;fontSize=24;html=1;flipV=1;rotation=90;" parent="WIyWlLk6GJQsqaUBKTNV-1" vertex="1">
          <mxGeometry x="354" y="330" width="20" height="20" as="geometry" />
        </mxCell>
        <mxCell id="PB_K3ttKSPYF9vjde6-5-47" value="" style="verticalLabelPosition=top;verticalAlign=bottom;shape=mxgraph.electrical.signal_sources.vdd;shadow=0;dashed=0;align=center;strokeWidth=1;fontSize=24;html=1;flipV=1;rotation=90;" parent="WIyWlLk6GJQsqaUBKTNV-1" vertex="1">
          <mxGeometry x="354" y="370" width="20" height="20" as="geometry" />
        </mxCell>
        <mxCell id="ZhTJbbVJ5x2Whkzgil_z-2" style="edgeStyle=orthogonalEdgeStyle;rounded=0;orthogonalLoop=1;jettySize=auto;html=1;entryX=0.5;entryY=0;entryDx=0;entryDy=0;entryPerimeter=0;endArrow=oval;endFill=1;" edge="1" parent="WIyWlLk6GJQsqaUBKTNV-1" source="PB_K3ttKSPYF9vjde6-5-10" target="PB_K3ttKSPYF9vjde6-5-40">
          <mxGeometry relative="1" as="geometry">
            <Array as="points">
              <mxPoint x="211" y="80" />
              <mxPoint x="211" y="80" />
            </Array>
          </mxGeometry>
        </mxCell>
        <mxCell id="ZhTJbbVJ5x2Whkzgil_z-29" style="edgeStyle=orthogonalEdgeStyle;rounded=0;orthogonalLoop=1;jettySize=auto;html=1;endArrow=oval;endFill=1;" edge="1" parent="WIyWlLk6GJQsqaUBKTNV-1" source="ZhTJbbVJ5x2Whkzgil_z-3">
          <mxGeometry relative="1" as="geometry">
            <mxPoint x="451" y="240" as="targetPoint" />
          </mxGeometry>
        </mxCell>
        <mxCell id="ZhTJbbVJ5x2Whkzgil_z-3" value="" style="pointerEvents=1;fillColor=strokeColor;verticalLabelPosition=bottom;shadow=0;dashed=0;align=center;html=1;verticalAlign=top;shape=mxgraph.electrical.diodes.zener_diode_1;fontSize=8;" vertex="1" parent="WIyWlLk6GJQsqaUBKTNV-1">
          <mxGeometry x="401" y="290" width="25" height="20" as="geometry" />
        </mxCell>
        <mxCell id="ZhTJbbVJ5x2Whkzgil_z-27" style="edgeStyle=orthogonalEdgeStyle;rounded=0;orthogonalLoop=1;jettySize=auto;html=1;endArrow=oval;endFill=1;" edge="1" parent="WIyWlLk6GJQsqaUBKTNV-1" source="ZhTJbbVJ5x2Whkzgil_z-4">
          <mxGeometry relative="1" as="geometry">
            <mxPoint x="451" y="190" as="targetPoint" />
          </mxGeometry>
        </mxCell>
        <mxCell id="ZhTJbbVJ5x2Whkzgil_z-4" value="" style="pointerEvents=1;fillColor=strokeColor;verticalLabelPosition=bottom;shadow=0;dashed=0;align=center;html=1;verticalAlign=top;shape=mxgraph.electrical.diodes.zener_diode_1;fontSize=8;" vertex="1" parent="WIyWlLk6GJQsqaUBKTNV-1">
          <mxGeometry x="401" y="230" width="25" height="20" as="geometry" />
        </mxCell>
        <mxCell id="ZhTJbbVJ5x2Whkzgil_z-5" value="&lt;font style=&quot;font-size: 10px;&quot;&gt;2.3~5.5V&lt;/font&gt;" style="text;html=1;strokeColor=none;fillColor=none;align=center;verticalAlign=middle;whiteSpace=wrap;rounded=0;dashed=1;fontSize=12;" vertex="1" parent="WIyWlLk6GJQsqaUBKTNV-1">
          <mxGeometry x="301" y="60" width="60" height="20" as="geometry" />
        </mxCell>
        <mxCell id="ZhTJbbVJ5x2Whkzgil_z-7" value="Proteção&lt;br&gt;&lt;font style=&quot;font-size: 10px;&quot;&gt;Tensão reversa&lt;/font&gt;" style="rounded=1;whiteSpace=wrap;html=1;fontSize=12;glass=0;strokeWidth=1;shadow=0;" vertex="1" parent="WIyWlLk6GJQsqaUBKTNV-1">
          <mxGeometry x="150" y="170" width="80" height="40" as="geometry" />
        </mxCell>
        <mxCell id="ZhTJbbVJ5x2Whkzgil_z-13" style="edgeStyle=orthogonalEdgeStyle;rounded=0;orthogonalLoop=1;jettySize=auto;html=1;entryX=0;entryY=0.5;entryDx=0;entryDy=0;" edge="1" parent="WIyWlLk6GJQsqaUBKTNV-1" source="ZhTJbbVJ5x2Whkzgil_z-8" target="ZhTJbbVJ5x2Whkzgil_z-7">
          <mxGeometry relative="1" as="geometry" />
        </mxCell>
        <mxCell id="ZhTJbbVJ5x2Whkzgil_z-30" style="edgeStyle=orthogonalEdgeStyle;rounded=0;orthogonalLoop=1;jettySize=auto;html=1;exitX=0.5;exitY=0;exitDx=0;exitDy=0;endArrow=oval;endFill=1;dashed=1;dashPattern=1 1;" edge="1" parent="WIyWlLk6GJQsqaUBKTNV-1" source="ZhTJbbVJ5x2Whkzgil_z-8">
          <mxGeometry relative="1" as="geometry">
            <mxPoint x="211" y="80" as="targetPoint" />
            <Array as="points">
              <mxPoint x="51" y="130" />
              <mxPoint x="211" y="130" />
            </Array>
          </mxGeometry>
        </mxCell>
        <mxCell id="ZhTJbbVJ5x2Whkzgil_z-8" value="Conector&amp;nbsp;&lt;br&gt;VBUS" style="rounded=1;whiteSpace=wrap;html=1;fontSize=12;glass=0;strokeWidth=1;shadow=0;" vertex="1" parent="WIyWlLk6GJQsqaUBKTNV-1">
          <mxGeometry x="11" y="170" width="80" height="40" as="geometry" />
        </mxCell>
        <mxCell id="ZhTJbbVJ5x2Whkzgil_z-26" style="edgeStyle=orthogonalEdgeStyle;rounded=0;orthogonalLoop=1;jettySize=auto;html=1;entryX=0;entryY=0.5;entryDx=0;entryDy=0;endArrow=none;endFill=0;" edge="1" parent="WIyWlLk6GJQsqaUBKTNV-1" source="ZhTJbbVJ5x2Whkzgil_z-10" target="ZhTJbbVJ5x2Whkzgil_z-25">
          <mxGeometry relative="1" as="geometry" />
        </mxCell>
        <mxCell id="ZhTJbbVJ5x2Whkzgil_z-10" value="" style="pointerEvents=1;fillColor=strokeColor;verticalLabelPosition=bottom;shadow=0;dashed=0;align=center;html=1;verticalAlign=top;shape=mxgraph.electrical.diodes.zener_diode_1;fontSize=8;" vertex="1" parent="WIyWlLk6GJQsqaUBKTNV-1">
          <mxGeometry x="401" y="180" width="25" height="20" as="geometry" />
        </mxCell>
        <mxCell id="ZhTJbbVJ5x2Whkzgil_z-15" style="edgeStyle=orthogonalEdgeStyle;rounded=0;orthogonalLoop=1;jettySize=auto;html=1;entryX=0;entryY=0.5;entryDx=0;entryDy=0;" edge="1" parent="WIyWlLk6GJQsqaUBKTNV-1" source="ZhTJbbVJ5x2Whkzgil_z-11" target="PB_K3ttKSPYF9vjde6-5-0">
          <mxGeometry relative="1" as="geometry" />
        </mxCell>
        <mxCell id="ZhTJbbVJ5x2Whkzgil_z-11" value="Proteção&lt;br&gt;&lt;font style=&quot;font-size: 10px;&quot;&gt;Tensão reversa&lt;/font&gt;" style="rounded=1;whiteSpace=wrap;html=1;fontSize=12;glass=0;strokeWidth=1;shadow=0;" vertex="1" parent="WIyWlLk6GJQsqaUBKTNV-1">
          <mxGeometry x="150" y="220" width="80" height="40" as="geometry" />
        </mxCell>
        <mxCell id="ZhTJbbVJ5x2Whkzgil_z-16" style="edgeStyle=orthogonalEdgeStyle;rounded=0;orthogonalLoop=1;jettySize=auto;html=1;entryX=0;entryY=0.5;entryDx=0;entryDy=0;entryPerimeter=0;endArrow=none;endFill=0;" edge="1" parent="WIyWlLk6GJQsqaUBKTNV-1" source="PB_K3ttKSPYF9vjde6-5-0" target="ZhTJbbVJ5x2Whkzgil_z-4">
          <mxGeometry relative="1" as="geometry" />
        </mxCell>
        <mxCell id="ZhTJbbVJ5x2Whkzgil_z-17" style="edgeStyle=orthogonalEdgeStyle;rounded=0;orthogonalLoop=1;jettySize=auto;html=1;entryX=0;entryY=0.5;entryDx=0;entryDy=0;entryPerimeter=0;endArrow=none;endFill=0;" edge="1" parent="WIyWlLk6GJQsqaUBKTNV-1" source="ZhTJbbVJ5x2Whkzgil_z-7" target="ZhTJbbVJ5x2Whkzgil_z-10">
          <mxGeometry relative="1" as="geometry" />
        </mxCell>
        <mxCell id="ZhTJbbVJ5x2Whkzgil_z-19" value="&lt;font style=&quot;font-size: 10px;&quot;&gt;+5V_Ext&lt;/font&gt;" style="text;html=1;strokeColor=none;fillColor=none;align=center;verticalAlign=middle;whiteSpace=wrap;rounded=0;dashed=1;fontSize=12;" vertex="1" parent="WIyWlLk6GJQsqaUBKTNV-1">
          <mxGeometry x="359.5" y="220" width="40" height="20" as="geometry" />
        </mxCell>
        <mxCell id="ZhTJbbVJ5x2Whkzgil_z-20" value="&lt;font style=&quot;font-size: 10px;&quot;&gt;+5V_USB&lt;/font&gt;" style="text;html=1;strokeColor=none;fillColor=none;align=center;verticalAlign=middle;whiteSpace=wrap;rounded=0;dashed=1;fontSize=12;" vertex="1" parent="WIyWlLk6GJQsqaUBKTNV-1">
          <mxGeometry x="359.5" y="170" width="40" height="20" as="geometry" />
        </mxCell>
        <mxCell id="ZhTJbbVJ5x2Whkzgil_z-21" value="&lt;font style=&quot;font-size: 10px;&quot;&gt;+5V_Ext&lt;/font&gt;" style="text;html=1;strokeColor=none;fillColor=none;align=center;verticalAlign=middle;whiteSpace=wrap;rounded=0;dashed=1;fontSize=12;" vertex="1" parent="WIyWlLk6GJQsqaUBKTNV-1">
          <mxGeometry x="377.5" y="330" width="40" height="20" as="geometry" />
        </mxCell>
        <mxCell id="ZhTJbbVJ5x2Whkzgil_z-22" value="&lt;font style=&quot;font-size: 10px;&quot;&gt;+5V_USB&lt;/font&gt;" style="text;html=1;strokeColor=none;fillColor=none;align=center;verticalAlign=middle;whiteSpace=wrap;rounded=0;dashed=1;fontSize=12;" vertex="1" parent="WIyWlLk6GJQsqaUBKTNV-1">
          <mxGeometry x="377.5" y="370" width="40" height="20" as="geometry" />
        </mxCell>
        <mxCell id="ZhTJbbVJ5x2Whkzgil_z-23" style="edgeStyle=orthogonalEdgeStyle;rounded=0;orthogonalLoop=1;jettySize=auto;html=1;entryX=0;entryY=0.5;entryDx=0;entryDy=0;entryPerimeter=0;endArrow=none;endFill=0;" edge="1" parent="WIyWlLk6GJQsqaUBKTNV-1" source="PB_K3ttKSPYF9vjde6-5-6" target="ZhTJbbVJ5x2Whkzgil_z-3">
          <mxGeometry relative="1" as="geometry" />
        </mxCell>
        <mxCell id="ZhTJbbVJ5x2Whkzgil_z-24" value="&lt;font style=&quot;font-size: 10px;&quot;&gt;+3.7V&lt;/font&gt;" style="text;html=1;strokeColor=none;fillColor=none;align=center;verticalAlign=middle;whiteSpace=wrap;rounded=0;dashed=1;fontSize=12;" vertex="1" parent="WIyWlLk6GJQsqaUBKTNV-1">
          <mxGeometry x="361" y="280" width="40" height="20" as="geometry" />
        </mxCell>
        <mxCell id="ZhTJbbVJ5x2Whkzgil_z-31" style="edgeStyle=orthogonalEdgeStyle;rounded=0;orthogonalLoop=1;jettySize=auto;html=1;entryX=0;entryY=1;entryDx=0;entryDy=0;exitX=0.5;exitY=0;exitDx=0;exitDy=0;endArrow=oval;endFill=1;dashed=1;dashPattern=1 1;" edge="1" parent="WIyWlLk6GJQsqaUBKTNV-1" source="ZhTJbbVJ5x2Whkzgil_z-25" target="ZhTJbbVJ5x2Whkzgil_z-5">
          <mxGeometry relative="1" as="geometry">
            <Array as="points">
              <mxPoint x="519" y="130" />
              <mxPoint x="301" y="130" />
            </Array>
          </mxGeometry>
        </mxCell>
        <mxCell id="ZhTJbbVJ5x2Whkzgil_z-25" value="Conector&amp;nbsp;&lt;br&gt;VSYS" style="rounded=1;whiteSpace=wrap;html=1;fontSize=12;glass=0;strokeWidth=1;shadow=0;" vertex="1" parent="WIyWlLk6GJQsqaUBKTNV-1">
          <mxGeometry x="479" y="170" width="80" height="40" as="geometry" />
        </mxCell>
        <mxCell id="ZhTJbbVJ5x2Whkzgil_z-33" value="&lt;font style=&quot;font-size: 10px;&quot;&gt;EN&lt;/font&gt;" style="text;html=1;strokeColor=none;fillColor=none;align=center;verticalAlign=middle;whiteSpace=wrap;rounded=0;dashed=1;fontSize=12;" vertex="1" parent="WIyWlLk6GJQsqaUBKTNV-1">
          <mxGeometry x="281" y="200" width="30" height="20" as="geometry" />
        </mxCell>
      </root>
    </mxGraphModel>
  </diagram>
</mxfile>
